                  <svg
                    width="96"
                    height="96"
                    viewBox="0 0 24 24"
                    fill="none"
                    xmlns="http://www.w3.org/2000/svg"
                  >
                    <path
                      d="M12.0288 8.46043C14.2926 8.46043 16.211 8.88249 17.7842 9.72662C19.3573 10.5707 20.5468 11.5492 21.3525 12.6619C22.3885 13.8513 23.0791 15.1559 23.4245 16.5755C23.8082 17.8801 24 19.1655 24 20.4317C24 21.4293 23.6355 22.2734 22.9065 22.964C22.1775 23.6547 21.3717 24 20.4892 24C19.4916 24 18.6475 23.6547 17.9568 22.964C17.2662 22.1583 16.9209 21.3141 16.9209 20.4317L16.7482 19.0504C16.6715 18.4748 16.4604 17.9376 16.1151 17.4388C15.8082 16.9017 15.3094 16.4604 14.6187 16.1151C13.9664 15.7314 13.1031 15.5396 12.0288 15.5396C10.9544 15.5396 9.93765 15.4245 8.97842 15.1942C8.01919 14.964 7.15588 14.6763 6.38849 14.3309C4.81535 13.4484 3.54916 12.4125 2.58993 11.223C1.66907 10.0336 1.01679 8.76739 0.633094 7.42446C0.211031 6.15827 0 4.85372 0 3.51079C0 2.55156 0.345324 1.72662 1.03597 1.03597C1.84173 0.345325 2.68585 0 3.56835 0C4.52758 0 5.35252 0.364507 6.04317 1.09352C6.73381 1.82254 7.07914 2.6283 7.07914 3.51079C7.15588 3.81774 7.19425 4.27818 7.19425 4.89209C7.38609 5.6211 7.61631 6.17746 7.88489 6.56115C8.30696 7.17506 8.82494 7.65468 9.43885 8C10.0528 8.30695 10.9161 8.46043 12.0288 8.46043ZM3.56835 16.9209C4.52758 16.9209 5.35252 17.2854 6.04317 18.0144C6.73381 18.7434 7.07914 19.5492 7.07914 20.4317C7.07914 21.4293 6.71463 22.2734 5.98561 22.964C5.2566 23.6547 4.45084 24 3.56835 24C2.57074 24 1.72662 23.6547 1.03597 22.964C0.345324 22.1583 0 21.3141 0 20.4317C0 19.4724 0.345324 18.6475 1.03597 17.9568C1.84173 17.2662 2.68585 16.9209 3.56835 16.9209ZM20.4892 0C21.4484 0 22.2734 0.364507 22.964 1.09352C23.6547 1.82254 24 2.6283 24 3.51079C24 4.50839 23.6355 5.35252 22.9065 6.04317C22.1775 6.73381 21.3717 7.07914 20.4892 7.07914C19.4916 7.07914 18.6475 6.73381 17.9568 6.04317C17.2662 5.23741 16.9209 4.39328 16.9209 3.51079C16.9209 2.55156 17.2662 1.72662 17.9568 1.03597C18.7626 0.345325 19.6067 0 20.4892 0Z"
                      fill="#23A543"
                    />
                  </svg>